<svg xmlns="http://www.w3.org/2000/svg" viewBox="0 0 224.3 93.9"><path d="M10.8 56.7V14.9h3.7v18.9h12.9V14.9h3.7v41.8h-3.7V36.4H14.5v20.3h-3.7zm28.7 0h-3.7L44 14.9h4.8l8.3 41.8h-3.7l-2.1-10.9h-9.6l-2.2 10.9zm2.6-13.3h8.7l-4.4-24.6-4.3 24.6zm21 13.3h-3.7l8.3-41.8h4.8l8.3 41.8H77l-2.1-10.9h-9.6l-2.2 10.9zm2.6-13.3h8.7L70 18.8l-4.3 24.6zm19.7 13.3V14.9h11.1c1.4 0 2.6.2 3.7.6s1.9.9 2.6 1.5c.7.6 1.2 1.4 1.6 2.4s.7 1.9.8 2.9c.2 1 .2 2.1.2 3.4 0 5.3-1.9 8.7-5.8 10.1l6.5 20.9h-3.9l-6.1-20.4h-7v20.4h-3.7zm3.7-23.3h7.4c1.1 0 1.9-.2 2.7-.6.7-.4 1.3-1 1.6-1.8.4-.8.6-1.6.8-2.4.1-.8.2-1.8.2-2.9 0-.9 0-1.7-.1-2.4s-.3-1.4-.5-2.1c-.2-.7-.5-1.3-.9-1.7-.4-.5-.9-.8-1.5-1.1-.6-.3-1.4-.4-2.2-.4h-7.4v15.4zm22.2 23.3V14.9h11.1c1.4 0 2.6.2 3.7.6s1.9.9 2.6 1.5c.7.6 1.2 1.4 1.6 2.4.4.9.7 1.9.8 2.9.2 1 .2 2.1.2 3.4 0 5.3-1.9 8.7-5.8 10.1l6.5 20.9h-3.9L122 36.3h-7v20.4h-3.7zm3.7-23.3h7.4c1.1 0 1.9-.2 2.7-.6s1.3-1 1.6-1.8.6-1.6.8-2.4c.1-.8.2-1.8.2-2.9 0-.9 0-1.7-.1-2.4s-.3-1.4-.5-2.1-.5-1.3-.9-1.7c-.4-.5-.9-.8-1.5-1.1s-1.4-.4-2.2-.4H115v15.4zm23.5 23.3h-3.7l8.3-41.8h4.8l8.3 41.8h-3.7l-2.1-10.9h-9.6l-2.3 10.9zm2.6-13.3h8.7l-4.4-24.6-4.3 24.6zm19 3V14.9h3.7v32.4c0 2.4.5 4.2 1.6 5.4 1.1 1.2 2.9 1.8 5.5 1.8 2.4 0 4.2-.6 5.2-1.8 1-1.2 1.6-3 1.6-5.3V14.9h3.7v31.5c0 7.3-3.5 10.9-10.4 10.9-1.7 0-3.1-.2-4.4-.6-1.3-.4-2.3-.9-3.1-1.6-.8-.7-1.5-1.5-2-2.4-.5-.9-.8-1.9-1-3-.3-.9-.4-2-.4-3.3zm28.2 10.3V14.9h4.5l8.1 36.1c1-4.7 2.3-10.5 3.9-17.3 1.6-6.8 3-13.1 4.1-18.7h4.5v41.8h-3.3V23.3l-7.7 33.4h-3.2l-7.7-33.4v33.4h-3.2zM47.8 79.8h4v.7h-5v-.7l3.8-5.5h-3.7v-.7h4.8v.7l-3.9 5.5zm8.6-1.5l.1.9.2-.8 1.4-4.8h.8l1.3 4.8.2.8.1-.9 1.1-4.7h.9l-1.7 6.9H60l-1.4-5-.1-.5-.1.5-1.5 5H56l-1.7-6.9h.9l1.2 4.7zm13-1h-3v2.5h3.5v.7h-4.4v-6.9h4.4v.7h-3.4v2.2h3v.8zm4.5 3.2H73v-6.9h.9v6.9zm8.4-6.2h-2.2v6.2h-.9v-6.2H77v-.7h5.4v.7zm8.3 6.2h-.9v-3.2h-3.5v3.2h-.9v-6.9h.9v3h3.5v-3h.9v6.9zm7.5-1.8h-2.9l-.7 1.8h-.9l2.6-6.9h.8l2.6 6.9h-.9l-.6-1.8zm-2.6-.8h2.4l-1.2-3.2-1.2 3.2zm10.9.8h-2.9l-.7 1.8h-.9l2.6-6.9h.8l2.6 6.9h-.9l-.6-1.8zm-2.6-.8h2.4l-1.2-3.2-1.2 3.2zm9.6-.2h-1.6v2.8h-.9v-6.9h2.3c.8 0 1.4.2 1.8.5.4.4.6.9.6 1.5 0 .4-.1.8-.3 1.1-.2.3-.6.6-1 .7l1.6 2.9v.1h-1l-1.5-2.7zm-1.6-.7h1.4c.5 0 .8-.1 1.1-.4.3-.2.4-.5.4-.9s-.1-.8-.4-1c-.3-.2-.6-.3-1.1-.3h-1.4V77zm11.1 1.6c0-.3.1-.6.3-.9.2-.3.5-.6 1.1-1-.3-.4-.5-.7-.6-.9s-.2-.5-.2-.7c0-.5.2-.9.5-1.2s.7-.4 1.3-.4c.5 0 .9.1 1.2.4s.5.6.5 1c0 .3-.1.5-.2.8-.1.2-.4.5-.7.7l-.5.4 1.5 1.8c.2-.4.3-.9.3-1.4h.8c0 .8-.2 1.5-.6 2l1 1.2h-1.1l-.5-.5c-.2.2-.5.4-.8.5s-.6.2-1 .2c-.7 0-1.2-.2-1.6-.5-.5-.4-.7-.9-.7-1.5zm2.2 1.3c.5 0 .9-.2 1.3-.5l-1.7-2-.2.1c-.5.4-.8.8-.8 1.2 0 .4.1.7.4.9.2.2.6.3 1 .3zm-.8-4.8c0 .3.2.7.6 1.1l.6-.4c.2-.2.4-.3.4-.4.1-.1.1-.3.1-.5s-.1-.4-.2-.5c-.2-.1-.4-.2-.6-.2-.3 0-.5.1-.6.3-.2.1-.3.4-.3.6zm15.1 2.3h-2.9v3.1h-.9v-6.9h4.3v.7h-3.4v2.4h2.9v.7zm6 .3h-1.6v2.8h-.9v-6.9h2.3c.8 0 1.4.2 1.8.5.4.4.6.9.6 1.5 0 .4-.1.8-.3 1.1-.2.3-.6.6-1 .7l1.6 2.9v.1h-1l-1.5-2.7zm-1.6-.7h1.4c.5 0 .8-.1 1.1-.4.3-.2.4-.5.4-.9s-.1-.8-.4-1c-.3-.2-.6-.3-1.1-.3h-1.4V77zm8 3.5h-.9v-6.9h.9v6.9zm5.6-3.1c-.8-.2-1.4-.5-1.7-.8s-.5-.7-.5-1.2.2-1 .7-1.4c.4-.4 1-.5 1.7-.5.5 0 .9.1 1.3.3.4.2.7.4.9.8.2.3.3.7.3 1.1h-.9c0-.4-.1-.7-.4-1s-.6-.4-1.1-.4c-.5 0-.8.1-1.1.3-.3.2-.4.5-.4.8 0 .3.1.5.4.7s.6.4 1.2.5c.6.2 1 .3 1.4.5.3.2.6.4.7.7s.2.6.2.9c0 .6-.2 1-.7 1.3s-1 .5-1.8.5c-.5 0-.9-.1-1.3-.3-.4-.2-.7-.4-1-.7-.2-.3-.3-.7-.3-1.1h.9c0 .4.2.7.5 1 .3.2.7.4 1.2.4s.9-.1 1.1-.3.4-.5.4-.8c0-.3-.1-.6-.4-.8-.2-.1-.6-.3-1.3-.5zm10.6-3.8v4.7c0 .7-.2 1.2-.6 1.6s-1 .6-1.7.7h-.2c-.8 0-1.4-.2-1.8-.6-.5-.4-.7-1-.7-1.7v-4.7h.9v4.7c0 .5.1.9.4 1.2s.7.4 1.2.4.9-.1 1.2-.4c.3-.3.4-.7.4-1.2v-4.7h.9zm5.9 4.1h-1.6v2.8h-.9v-6.9h2.3c.8 0 1.4.2 1.8.5.4.4.6.9.6 1.5 0 .4-.1.8-.3 1.1-.2.3-.6.6-1 .7l1.6 2.9v.1h-1l-1.5-2.7zm-1.6-.7h1.4c.5 0 .8-.1 1.1-.4.3-.2.4-.5.4-.9s-.1-.8-.4-1c-.3-.2-.6-.3-1.1-.3h-1.4V77z" fill="#fff"/></svg>