<?xml version="1.0" encoding="utf-8"?>
<!-- Generator: Adobe Illustrator 23.0.1, SVG Export Plug-In . SVG Version: 6.00 Build 0)  -->
<svg version="1.1" id="Ebene_1" xmlns="http://www.w3.org/2000/svg" xmlns:xlink="http://www.w3.org/1999/xlink" x="0px" y="0px"
	 viewBox="0 0 202.6 42.4" style="enable-background:new 0 0 202.6 42.4;" xml:space="preserve">
<style type="text/css">
	.st0{fill:#FFFFFF;}
</style>
<g>
	<path class="st0" d="M0,41.8V0h3.7v18.9h12.9V0h3.7v41.8h-3.7V21.5H3.7v20.3H0z"/>
	<path class="st0" d="M28.7,41.8H25L33.2,0H38l8.3,41.8h-3.7l-2.1-10.9h-9.6L28.7,41.8z M31.3,28.5H40L35.6,3.9L31.3,28.5z"/>
	<path class="st0" d="M52.3,41.8h-3.7L56.9,0h4.8L70,41.8h-3.8l-2.1-10.9h-9.6L52.3,41.8z M54.9,28.5h8.7L59.2,3.9L54.9,28.5z"/>
	<path class="st0" d="M74.6,41.8V0h11.1c1.4,0,2.6,0.2,3.7,0.6s1.9,0.9,2.6,1.5s1.2,1.4,1.6,2.4s0.7,1.9,0.8,2.9
		c0.2,1,0.2,2.1,0.2,3.4c0,5.3-1.9,8.7-5.8,10.1l6.5,20.9h-3.9l-6.1-20.4h-7v20.4C78.3,41.8,74.6,41.8,74.6,41.8z M78.3,18.5h7.4
		c1.1,0,1.9-0.2,2.7-0.6c0.7-0.4,1.3-1,1.6-1.8c0.4-0.8,0.6-1.6,0.8-2.4c0.1-0.8,0.2-1.8,0.2-2.9c0-0.9,0-1.7-0.1-2.4
		c-0.1-0.7-0.3-1.4-0.5-2.1S89.9,5,89.5,4.6c-0.4-0.5-0.9-0.8-1.5-1.1c-0.6-0.3-1.4-0.4-2.2-0.4h-7.4L78.3,18.5L78.3,18.5z"/>
	<path class="st0" d="M100.5,41.8V0h11.1c1.4,0,2.6,0.2,3.7,0.6s1.9,0.9,2.6,1.5s1.2,1.4,1.6,2.4c0.4,0.9,0.7,1.9,0.8,2.9
		c0.2,1,0.2,2.1,0.2,3.4c0,5.3-1.9,8.7-5.8,10.1l6.5,20.9h-3.9l-6.1-20.4h-7v20.4C104.2,41.8,100.5,41.8,100.5,41.8z M104.2,18.5
		h7.4c1.1,0,1.9-0.2,2.7-0.6s1.3-1,1.6-1.8s0.6-1.6,0.8-2.4c0.1-0.8,0.2-1.8,0.2-2.9c0-0.9,0-1.7-0.1-2.4c-0.1-0.7-0.3-1.4-0.5-2.1
		s-0.5-1.3-0.9-1.7c-0.4-0.5-0.9-0.8-1.5-1.1s-1.4-0.4-2.2-0.4h-7.5V18.5z"/>
	<path class="st0" d="M127.7,41.8H124L132.3,0h4.8l8.3,41.8h-3.7l-2.1-10.9H130L127.7,41.8z M130.3,28.5h8.7l-4.4-24.6L130.3,28.5z"
		/>
	<path class="st0" d="M149.3,31.5V0h3.7v32.4c0,2.4,0.5,4.2,1.6,5.4c1.1,1.2,2.9,1.8,5.5,1.8c2.4,0,4.2-0.6,5.2-1.8
		c1-1.2,1.6-3,1.6-5.3V0h3.7v31.5c0,7.3-3.5,10.9-10.4,10.9c-1.7,0-3.1-0.2-4.4-0.6c-1.3-0.4-2.3-0.9-3.1-1.6s-1.5-1.5-2-2.4
		s-0.8-1.9-1-3C149.4,33.9,149.3,32.8,149.3,31.5z"/>
	<path class="st0" d="M177.5,41.8V0h4.5l8.1,36.1c1-4.7,2.3-10.5,3.9-17.3c1.6-6.8,3-13.1,4.1-18.7h4.5v41.8h-3.3V8.4l-7.7,33.4
		h-3.2l-7.7-33.4v33.4H177.5z"/>
</g>
</svg>
