<?xml version="1.0" encoding="utf-8"?>
<!-- Generator: Adobe Illustrator 23.0.3, SVG Export Plug-In . SVG Version: 6.00 Build 0)  -->
<svg version="1.1" id="Ebene_1" xmlns="http://www.w3.org/2000/svg" xmlns:xlink="http://www.w3.org/1999/xlink" x="0px" y="0px"
	 viewBox="0 0 224.3 93.9" style="enable-background:new 0 0 224.3 93.9;" xml:space="preserve">
<style type="text/css">
	.st0{fill:#FFFFFF;}
</style>
<g>
	<path class="st0" d="M10.8,56.7V14.9h3.7v18.9h12.9V14.9h3.7v41.8h-3.7V36.4H14.5v20.3H10.8z"/>
	<path class="st0" d="M39.5,56.7h-3.7L44,14.9h4.8l8.3,41.8h-3.7l-2.1-10.9h-9.6L39.5,56.7z M42.1,43.4h8.7l-4.4-24.6L42.1,43.4z"/>
	<path class="st0" d="M63.1,56.7h-3.7l8.3-41.8h4.8l8.3,41.8H77l-2.1-10.9h-9.6L63.1,56.7z M65.7,43.4h8.7L70,18.8L65.7,43.4z"/>
	<path class="st0" d="M85.4,56.7V14.9h11.1c1.4,0,2.6,0.2,3.7,0.6s1.9,0.9,2.6,1.5c0.7,0.6,1.2,1.4,1.6,2.4s0.7,1.9,0.8,2.9
		c0.2,1,0.2,2.1,0.2,3.4c0,5.3-1.9,8.7-5.8,10.1l6.5,20.9h-3.9l-6.1-20.4h-7v20.4H85.4z M89.1,33.4h7.4c1.1,0,1.9-0.2,2.7-0.6
		c0.7-0.4,1.3-1,1.6-1.8c0.4-0.8,0.6-1.6,0.8-2.4c0.1-0.8,0.2-1.8,0.2-2.9c0-0.9,0-1.7-0.1-2.4c-0.1-0.7-0.3-1.4-0.5-2.1
		c-0.2-0.7-0.5-1.3-0.9-1.7c-0.4-0.5-0.9-0.8-1.5-1.1c-0.6-0.3-1.4-0.4-2.2-0.4h-7.4V33.4z"/>
	<path class="st0" d="M111.3,56.7V14.9h11.1c1.4,0,2.6,0.2,3.7,0.6s1.9,0.9,2.6,1.5c0.7,0.6,1.2,1.4,1.6,2.4
		c0.4,0.9,0.7,1.9,0.8,2.9c0.2,1,0.2,2.1,0.2,3.4c0,5.3-1.9,8.7-5.8,10.1l6.5,20.9h-3.9L122,36.3h-7v20.4H111.3z M115,33.4h7.4
		c1.1,0,1.9-0.2,2.7-0.6s1.3-1,1.6-1.8s0.6-1.6,0.8-2.4c0.1-0.8,0.2-1.8,0.2-2.9c0-0.9,0-1.7-0.1-2.4c-0.1-0.7-0.3-1.4-0.5-2.1
		s-0.5-1.3-0.9-1.7c-0.4-0.5-0.9-0.8-1.5-1.1s-1.4-0.4-2.2-0.4H115V33.4z"/>
	<path class="st0" d="M138.5,56.7h-3.7l8.3-41.8h4.8l8.3,41.8h-3.7l-2.1-10.9h-9.6L138.5,56.7z M141.1,43.4h8.7l-4.4-24.6
		L141.1,43.4z"/>
	<path class="st0" d="M160.1,46.4V14.9h3.7v32.4c0,2.4,0.5,4.2,1.6,5.4c1.1,1.2,2.9,1.8,5.5,1.8c2.4,0,4.2-0.6,5.2-1.8
		c1-1.2,1.6-3,1.6-5.3V14.9h3.7v31.5c0,7.3-3.5,10.9-10.4,10.9c-1.7,0-3.1-0.2-4.4-0.6c-1.3-0.4-2.3-0.9-3.1-1.6
		c-0.8-0.7-1.5-1.5-2-2.4c-0.5-0.9-0.8-1.9-1-3C160.2,48.8,160.1,47.7,160.1,46.4z"/>
	<path class="st0" d="M188.3,56.7V14.9h4.5l8.1,36.1c1-4.7,2.3-10.5,3.9-17.3c1.6-6.8,3-13.1,4.1-18.7h4.5v41.8h-3.3V23.3l-7.7,33.4
		h-3.2l-7.7-33.4v33.4H188.3z"/>
</g>
</svg>
