<?xml version="1.0" encoding="utf-8"?>
<!-- Generator: Adobe Illustrator 23.0.3, SVG Export Plug-In . SVG Version: 6.00 Build 0)  -->
<svg version="1.1" id="Ebene_1" xmlns="http://www.w3.org/2000/svg" xmlns:xlink="http://www.w3.org/1999/xlink" x="0px" y="0px"
	 viewBox="0 0 224.3 93.9" style="enable-background:new 0 0 224.3 93.9;" xml:space="preserve">
<style type="text/css">
	.st0{fill:#FFFFFF;}
</style>
<g>
	<path class="st0" d="M10.8,56.7V14.9h3.7v18.9h12.9V14.9h3.7v41.8h-3.7V36.4H14.5v20.3H10.8z"/>
	<path class="st0" d="M39.5,56.7h-3.7L44,14.9h4.8l8.3,41.8h-3.7l-2.1-10.9h-9.6L39.5,56.7z M42.1,43.4h8.7l-4.4-24.6L42.1,43.4z"/>
	<path class="st0" d="M63.1,56.7h-3.7l8.3-41.8h4.8l8.3,41.8H77l-2.1-10.9h-9.6L63.1,56.7z M65.7,43.4h8.7L70,18.8L65.7,43.4z"/>
	<path class="st0" d="M85.4,56.7V14.9h11.1c1.4,0,2.6,0.2,3.7,0.6s1.9,0.9,2.6,1.5c0.7,0.6,1.2,1.4,1.6,2.4s0.7,1.9,0.8,2.9
		c0.2,1,0.2,2.1,0.2,3.4c0,5.3-1.9,8.7-5.8,10.1l6.5,20.9h-3.9l-6.1-20.4h-7v20.4H85.4z M89.1,33.4h7.4c1.1,0,1.9-0.2,2.7-0.6
		c0.7-0.4,1.3-1,1.6-1.8c0.4-0.8,0.6-1.6,0.8-2.4c0.1-0.8,0.2-1.8,0.2-2.9c0-0.9,0-1.7-0.1-2.4c-0.1-0.7-0.3-1.4-0.5-2.1
		c-0.2-0.7-0.5-1.3-0.9-1.7c-0.4-0.5-0.9-0.8-1.5-1.1c-0.6-0.3-1.4-0.4-2.2-0.4h-7.4V33.4z"/>
	<path class="st0" d="M111.3,56.7V14.9h11.1c1.4,0,2.6,0.2,3.7,0.6s1.9,0.9,2.6,1.5c0.7,0.6,1.2,1.4,1.6,2.4
		c0.4,0.9,0.7,1.9,0.8,2.9c0.2,1,0.2,2.1,0.2,3.4c0,5.3-1.9,8.7-5.8,10.1l6.5,20.9h-3.9L122,36.3h-7v20.4H111.3z M115,33.4h7.4
		c1.1,0,1.9-0.2,2.7-0.6s1.3-1,1.6-1.8s0.6-1.6,0.8-2.4c0.1-0.8,0.2-1.8,0.2-2.9c0-0.9,0-1.7-0.1-2.4c-0.1-0.7-0.3-1.4-0.5-2.1
		s-0.5-1.3-0.9-1.7c-0.4-0.5-0.9-0.8-1.5-1.1s-1.4-0.4-2.2-0.4H115V33.4z"/>
	<path class="st0" d="M138.5,56.7h-3.7l8.3-41.8h4.8l8.3,41.8h-3.7l-2.1-10.9h-9.6L138.5,56.7z M141.1,43.4h8.7l-4.4-24.6
		L141.1,43.4z"/>
	<path class="st0" d="M160.1,46.4V14.9h3.7v32.4c0,2.4,0.5,4.2,1.6,5.4c1.1,1.2,2.9,1.8,5.5,1.8c2.4,0,4.2-0.6,5.2-1.8
		c1-1.2,1.6-3,1.6-5.3V14.9h3.7v31.5c0,7.3-3.5,10.9-10.4,10.9c-1.7,0-3.1-0.2-4.4-0.6c-1.3-0.4-2.3-0.9-3.1-1.6
		c-0.8-0.7-1.5-1.5-2-2.4c-0.5-0.9-0.8-1.9-1-3C160.2,48.8,160.1,47.7,160.1,46.4z"/>
	<path class="st0" d="M188.3,56.7V14.9h4.5l8.1,36.1c1-4.7,2.3-10.5,3.9-17.3c1.6-6.8,3-13.1,4.1-18.7h4.5v41.8h-3.3V23.3l-7.7,33.4
		h-3.2l-7.7-33.4v33.4H188.3z"/>
</g>
<g>
	<path class="st0" d="M47.8,79.8h4v0.7h-5v-0.7l3.8-5.5h-3.7v-0.7h4.8v0.7L47.8,79.8z"/>
	<path class="st0" d="M56.4,78.3l0.1,0.9l0.2-0.8l1.4-4.8h0.8l1.3,4.8l0.2,0.8l0.1-0.9l1.1-4.7h0.9l-1.7,6.9H60l-1.4-5l-0.1-0.5
		l-0.1,0.5l-1.5,5H56l-1.7-6.9h0.9L56.4,78.3z"/>
	<path class="st0" d="M69.4,77.3h-3v2.5h3.5v0.7h-4.4v-6.9h4.4v0.7h-3.4v2.2h3V77.3z"/>
	<path class="st0" d="M73.9,80.5H73v-6.9h0.9V80.5z"/>
	<path class="st0" d="M82.3,74.3h-2.2v6.2h-0.9v-6.2H77v-0.7h5.4V74.3z"/>
	<path class="st0" d="M90.6,80.5h-0.9v-3.2h-3.5v3.2h-0.9v-6.9h0.9v3h3.5v-3h0.9V80.5z"/>
	<path class="st0" d="M98.1,78.7h-2.9l-0.7,1.8h-0.9l2.6-6.9h0.8l2.6,6.9h-0.9L98.1,78.7z M95.5,77.9h2.4l-1.2-3.2L95.5,77.9z"/>
	<path class="st0" d="M106.4,78.7h-2.9l-0.7,1.8h-0.9l2.6-6.9h0.8l2.6,6.9h-0.9L106.4,78.7z M103.8,77.9h2.4l-1.2-3.2L103.8,77.9z"
		/>
	<path class="st0" d="M113.4,77.7h-1.6v2.8h-0.9v-6.9h2.3c0.8,0,1.4,0.2,1.8,0.5c0.4,0.4,0.6,0.9,0.6,1.5c0,0.4-0.1,0.8-0.3,1.1
		c-0.2,0.3-0.6,0.6-1,0.7l1.6,2.9v0.1h-1L113.4,77.7z M111.8,77h1.4c0.5,0,0.8-0.1,1.1-0.4c0.3-0.2,0.4-0.5,0.4-0.9
		c0-0.4-0.1-0.8-0.4-1c-0.3-0.2-0.6-0.3-1.1-0.3h-1.4V77z"/>
	<path class="st0" d="M122.9,78.6c0-0.3,0.1-0.6,0.3-0.9c0.2-0.3,0.5-0.6,1.1-1c-0.3-0.4-0.5-0.7-0.6-0.9s-0.2-0.5-0.2-0.7
		c0-0.5,0.2-0.9,0.5-1.2s0.7-0.4,1.3-0.4c0.5,0,0.9,0.1,1.2,0.4s0.5,0.6,0.5,1c0,0.3-0.1,0.5-0.2,0.8c-0.1,0.2-0.4,0.5-0.7,0.7
		l-0.5,0.4l1.5,1.8c0.2-0.4,0.3-0.9,0.3-1.4h0.8c0,0.8-0.2,1.5-0.6,2l1,1.2h-1.1l-0.5-0.5c-0.2,0.2-0.5,0.4-0.8,0.5s-0.6,0.2-1,0.2
		c-0.7,0-1.2-0.2-1.6-0.5C123.1,79.7,122.9,79.2,122.9,78.6z M125.1,79.9c0.5,0,0.9-0.2,1.3-0.5l-1.7-2l-0.2,0.1
		c-0.5,0.4-0.8,0.8-0.8,1.2c0,0.4,0.1,0.7,0.4,0.9C124.3,79.8,124.7,79.9,125.1,79.9z M124.3,75.1c0,0.3,0.2,0.7,0.6,1.1l0.6-0.4
		c0.2-0.2,0.4-0.3,0.4-0.4c0.1-0.1,0.1-0.3,0.1-0.5c0-0.2-0.1-0.4-0.2-0.5c-0.2-0.1-0.4-0.2-0.6-0.2c-0.3,0-0.5,0.1-0.6,0.3
		C124.4,74.6,124.3,74.9,124.3,75.1z"/>
	<path class="st0" d="M139.4,77.4h-2.9v3.1h-0.9v-6.9h4.3v0.7h-3.4v2.4h2.9V77.4z"/>
	<path class="st0" d="M145.4,77.7h-1.6v2.8h-0.9v-6.9h2.3c0.8,0,1.4,0.2,1.8,0.5c0.4,0.4,0.6,0.9,0.6,1.5c0,0.4-0.1,0.8-0.3,1.1
		c-0.2,0.3-0.6,0.6-1,0.7l1.6,2.9v0.1h-1L145.4,77.7z M143.8,77h1.4c0.5,0,0.8-0.1,1.1-0.4c0.3-0.2,0.4-0.5,0.4-0.9
		c0-0.4-0.1-0.8-0.4-1c-0.3-0.2-0.6-0.3-1.1-0.3h-1.4V77z"/>
	<path class="st0" d="M151.8,80.5h-0.9v-6.9h0.9V80.5z"/>
	<path class="st0" d="M157.4,77.4c-0.8-0.2-1.4-0.5-1.7-0.8s-0.5-0.7-0.5-1.2c0-0.5,0.2-1,0.7-1.4c0.4-0.4,1-0.5,1.7-0.5
		c0.5,0,0.9,0.1,1.3,0.3c0.4,0.2,0.7,0.4,0.9,0.8c0.2,0.3,0.3,0.7,0.3,1.1h-0.9c0-0.4-0.1-0.7-0.4-1s-0.6-0.4-1.1-0.4
		c-0.5,0-0.8,0.1-1.1,0.3c-0.3,0.2-0.4,0.5-0.4,0.8c0,0.3,0.1,0.5,0.4,0.7s0.6,0.4,1.2,0.5c0.6,0.2,1,0.3,1.4,0.5
		c0.3,0.2,0.6,0.4,0.7,0.7s0.2,0.6,0.2,0.9c0,0.6-0.2,1-0.7,1.3s-1,0.5-1.8,0.5c-0.5,0-0.9-0.1-1.3-0.3c-0.4-0.2-0.7-0.4-1-0.7
		c-0.2-0.3-0.3-0.7-0.3-1.1h0.9c0,0.4,0.2,0.7,0.5,1c0.3,0.2,0.7,0.4,1.2,0.4c0.5,0,0.9-0.1,1.1-0.3s0.4-0.5,0.4-0.8
		c0-0.3-0.1-0.6-0.4-0.8C158.5,77.8,158.1,77.6,157.4,77.4z"/>
	<path class="st0" d="M168,73.6v4.7c0,0.7-0.2,1.2-0.6,1.6s-1,0.6-1.7,0.7l-0.2,0c-0.8,0-1.4-0.2-1.8-0.6c-0.5-0.4-0.7-1-0.7-1.7
		v-4.7h0.9v4.7c0,0.5,0.1,0.9,0.4,1.2s0.7,0.4,1.2,0.4c0.5,0,0.9-0.1,1.2-0.4c0.3-0.3,0.4-0.7,0.4-1.2v-4.7H168z"/>
	<path class="st0" d="M173.9,77.7h-1.6v2.8h-0.9v-6.9h2.3c0.8,0,1.4,0.2,1.8,0.5c0.4,0.4,0.6,0.9,0.6,1.5c0,0.4-0.1,0.8-0.3,1.1
		c-0.2,0.3-0.6,0.6-1,0.7l1.6,2.9v0.1h-1L173.9,77.7z M172.3,77h1.4c0.5,0,0.8-0.1,1.1-0.4c0.3-0.2,0.4-0.5,0.4-0.9
		c0-0.4-0.1-0.8-0.4-1c-0.3-0.2-0.6-0.3-1.1-0.3h-1.4V77z"/>
</g>
</svg>
