<svg xmlns="http://www.w3.org/2000/svg" viewBox="0 0 224.3 93.9"><path d="M10.8 56.7V14.9h3.7v18.9h12.9V14.9h3.7v41.8h-3.7V36.4H14.5v20.3h-3.7zm28.7 0h-3.7L44 14.9h4.8l8.3 41.8h-3.7l-2.1-10.9h-9.6l-2.2 10.9zm2.6-13.3h8.7l-4.4-24.6-4.3 24.6zm21 13.3h-3.7l8.3-41.8h4.8l8.3 41.8H77l-2.1-10.9h-9.6l-2.2 10.9zm2.6-13.3h8.7L70 18.8l-4.3 24.6zm19.7 13.3V14.9h11.1c1.4 0 2.6.2 3.7.6s1.9.9 2.6 1.5c.7.6 1.2 1.4 1.6 2.4s.7 1.9.8 2.9c.2 1 .2 2.1.2 3.4 0 5.3-1.9 8.7-5.8 10.1l6.5 20.9h-3.9l-6.1-20.4h-7v20.4h-3.7zm3.7-23.3h7.4c1.1 0 1.9-.2 2.7-.6.7-.4 1.3-1 1.6-1.8.4-.8.6-1.6.8-2.4.1-.8.2-1.8.2-2.9 0-.9 0-1.7-.1-2.4s-.3-1.4-.5-2.1c-.2-.7-.5-1.3-.9-1.7-.4-.5-.9-.8-1.5-1.1-.6-.3-1.4-.4-2.2-.4h-7.4v15.4zm22.2 23.3V14.9h11.1c1.4 0 2.6.2 3.7.6s1.9.9 2.6 1.5c.7.6 1.2 1.4 1.6 2.4.4.9.7 1.9.8 2.9.2 1 .2 2.1.2 3.4 0 5.3-1.9 8.7-5.8 10.1l6.5 20.9h-3.9L122 36.3h-7v20.4h-3.7zm3.7-23.3h7.4c1.1 0 1.9-.2 2.7-.6s1.3-1 1.6-1.8.6-1.6.8-2.4c.1-.8.2-1.8.2-2.9 0-.9 0-1.7-.1-2.4s-.3-1.4-.5-2.1-.5-1.3-.9-1.7c-.4-.5-.9-.8-1.5-1.1s-1.4-.4-2.2-.4H115v15.4zm23.5 23.3h-3.7l8.3-41.8h4.8l8.3 41.8h-3.7l-2.1-10.9h-9.6l-2.3 10.9zm2.6-13.3h8.7l-4.4-24.6-4.3 24.6zm19 3V14.9h3.7v32.4c0 2.4.5 4.2 1.6 5.4 1.1 1.2 2.9 1.8 5.5 1.8 2.4 0 4.2-.6 5.2-1.8 1-1.2 1.6-3 1.6-5.3V14.9h3.7v31.5c0 7.3-3.5 10.9-10.4 10.9-1.7 0-3.1-.2-4.4-.6-1.3-.4-2.3-.9-3.1-1.6-.8-.7-1.5-1.5-2-2.4-.5-.9-.8-1.9-1-3-.3-.9-.4-2-.4-3.3zm28.2 10.3V14.9h4.5l8.1 36.1c1-4.7 2.3-10.5 3.9-17.3 1.6-6.8 3-13.1 4.1-18.7h4.5v41.8h-3.3V23.3l-7.7 33.4h-3.2l-7.7-33.4v33.4h-3.2z" fill="#fff"/></svg>